<svg width="240" zoomAndPan="magnify" viewBox="0 0 180 30.000001" height="40" preserveAspectRatio="xMidYMid meet" version="1.0" xmlns="http://www.w3.org/2000/svg">
  <defs>
    <g></g>
    <clipPath id="4bf72b573b">
      <path d="M 5.804688 0 L 30 0 L 30 17 L 5.804688 17 Z M 5.804688 0 " clip-rule="nonzero"></path>
    </clipPath>
    <clipPath id="7c9becdb8b">
      <path d="M 12 1 L 34.839844 1 L 34.839844 19 L 12 19 Z M 12 1 " clip-rule="nonzero"></path>
    </clipPath>
    <clipPath id="27d5a861a7">
      <path d="M 7 3 L 34.839844 3 L 34.839844 29.03125 L 7 29.03125 Z M 7 3 " clip-rule="nonzero"></path>
    </clipPath>
  </defs>
  <g clip-path="url(#4bf72b573b)">
    <path fill="#4dc0e9" d="M 10.667969 9.1875 C 10.589844 8.484375 10.550781 7.769531 10.550781 7.042969 L 10.550781 6.824219 C 11.621094 6.355469 12.734375 5.964844 13.875 5.652344 C 14.9375 5.363281 16.027344 5.144531 17.140625 5 C 18.085938 4.878906 19.042969 4.808594 20.015625 4.796875 L 20.324219 4.792969 C 21.398438 4.792969 22.460938 4.863281 23.503906 5 C 24.40625 5.117188 25.292969 5.285156 26.164062 5.496094 L 29.980469 1.644531 C 29.738281 1.558594 29.496094 1.476562 29.25 1.398438 C 28.691406 1.21875 28.125 1.054688 27.554688 0.910156 C 25.242188 0.320312 22.816406 0.00390625 20.324219 0.00390625 C 17.828125 0.00390625 15.40625 0.320312 13.089844 0.910156 C 12.519531 1.054688 11.953125 1.21875 11.394531 1.398438 C 10.960938 1.539062 10.53125 1.6875 10.105469 1.84375 C 8.691406 2.375 7.332031 3.007812 6.03125 3.738281 C 6 3.964844 5.972656 4.191406 5.949219 4.421875 C 5.855469 5.28125 5.804688 6.15625 5.804688 7.042969 C 5.804688 7.863281 5.847656 8.671875 5.925781 9.46875 C 6.171875 11.925781 6.789062 14.269531 7.71875 16.449219 L 11.402344 12.726562 C 11.050781 11.585938 10.800781 10.402344 10.667969 9.1875 Z M 10.667969 9.1875 " fill-opacity="1" fill-rule="evenodd"></path>
  </g>
  <g clip-path="url(#7c9becdb8b)">
    <path d="M 34.613281 3.738281 C 33.3125 3.007812 31.953125 2.375 30.539062 1.84375 C 30.355469 1.777344 30.167969 1.707031 29.980469 1.644531 L 26.164062 5.496094 L 19.972656 11.75 L 16.171875 7.914062 L 12.878906 11.234375 L 12.816406 11.300781 L 12.9375 11.421875 L 19.972656 18.523438 L 26.152344 12.28125 L 30.054688 8.34375 Z M 34.613281 3.738281 " fill-opacity="1" fill-rule="evenodd" style="fill: rgb(255, 255, 255);"></path>
  </g>
  <g clip-path="url(#27d5a861a7)">
    <path fill="#008fc5" d="M 30.050781 8.34375 C 30.035156 8.625 30.007812 8.90625 29.976562 9.1875 C 29.28125 15.460938 25.5625 20.8125 20.324219 23.71875 C 16.273438 21.472656 13.132812 17.765625 11.59375 13.300781 C 11.527344 13.109375 11.464844 12.917969 11.402344 12.726562 L 7.71875 16.449219 C 7.792969 16.625 7.871094 16.804688 7.949219 16.980469 C 9.515625 20.414062 11.867188 23.410156 14.773438 25.730469 C 16.453125 27.070312 18.316406 28.183594 20.324219 29.027344 C 22.328125 28.183594 24.191406 27.070312 25.871094 25.730469 C 30.742188 21.839844 34.058594 16.050781 34.71875 9.46875 C 34.796875 8.671875 34.839844 7.863281 34.839844 7.042969 C 34.839844 6.15625 34.789062 5.28125 34.695312 4.421875 C 34.671875 4.191406 34.644531 3.964844 34.613281 3.738281 L 30.054688 8.34375 Z M 30.050781 8.34375 " fill-opacity="1" fill-rule="evenodd"></path>
  </g>
  <g fill="#fff" fill-opacity="1">
    <g transform="translate(36.154777, 20.322582)">
      <g>
        <path d="M 3.40625 -6.96875 C 3.40625 -6.695312 3.414062 -6.4375 3.4375 -6.1875 C 3.457031 -5.945312 3.488281 -5.710938 3.53125 -5.484375 C 3.582031 -5.265625 3.640625 -5.050781 3.703125 -4.84375 C 3.910156 -4.21875 4.191406 -3.6875 4.546875 -3.25 C 4.660156 -3.101562 4.78125 -2.96875 4.90625 -2.84375 C 5.03125 -2.71875 5.164062 -2.601562 5.3125 -2.5 C 5.457031 -2.40625 5.613281 -2.320312 5.78125 -2.25 C 6.25 -2.019531 6.769531 -1.90625 7.34375 -1.90625 C 7.9375 -1.90625 8.445312 -1.972656 8.875 -2.109375 C 9.320312 -2.253906 9.75 -2.453125 10.15625 -2.703125 L 10.671875 -3 L 10.875 -2.4375 L 11.453125 -0.875 L 11.609375 -0.453125 L 11.234375 -0.265625 C 10.703125 0.015625 10.109375 0.253906 9.453125 0.453125 C 8.773438 0.640625 8 0.734375 7.125 0.734375 C 6.144531 0.734375 5.25 0.550781 4.4375 0.1875 C 3.625 -0.164062 2.921875 -0.675781 2.328125 -1.34375 C 1.742188 -2.007812 1.289062 -2.8125 0.96875 -3.75 C 0.65625 -4.6875 0.5 -5.734375 0.5 -6.890625 C 0.5 -7.992188 0.65625 -9.019531 0.96875 -9.96875 C 1.289062 -10.914062 1.75 -11.734375 2.34375 -12.421875 C 2.945312 -13.117188 3.675781 -13.660156 4.53125 -14.046875 C 4.945312 -14.234375 5.394531 -14.375 5.875 -14.46875 C 6.351562 -14.570312 6.847656 -14.625 7.359375 -14.625 C 8.078125 -14.625 8.71875 -14.554688 9.28125 -14.421875 C 9.851562 -14.296875 10.398438 -14.113281 10.921875 -13.875 L 11.3125 -13.671875 L 11.171875 -13.234375 L 10.59375 -11.640625 L 10.390625 -11.125 L 9.90625 -11.375 C 9.519531 -11.570312 9.128906 -11.722656 8.734375 -11.828125 C 8.597656 -11.867188 8.457031 -11.898438 8.3125 -11.921875 C 8.175781 -11.941406 8.023438 -11.957031 7.859375 -11.96875 C 7.703125 -11.976562 7.53125 -11.984375 7.34375 -11.984375 C 7.0625 -11.984375 6.785156 -11.957031 6.515625 -11.90625 C 6.253906 -11.851562 6.003906 -11.773438 5.765625 -11.671875 C 5.535156 -11.566406 5.316406 -11.429688 5.109375 -11.265625 C 4.898438 -11.109375 4.707031 -10.921875 4.53125 -10.703125 C 4.363281 -10.492188 4.210938 -10.257812 4.078125 -10 C 3.941406 -9.75 3.816406 -9.460938 3.703125 -9.140625 C 3.503906 -8.515625 3.40625 -7.789062 3.40625 -6.96875 Z M 3.40625 -6.96875 "></path>
      </g>
    </g>
  </g>
  <g fill="#0f2d45" fill-opacity="1" transform="matrix(1, 0, 0, 1, 0, 0.144)">
    <g transform="translate(49.126992, 20.322582)">
      <g>
        <path d="M 1.859375 5.09375 C 1.816406 5.09375 1.769531 5.09375 1.71875 5.09375 C 1.675781 5.09375 1.632812 5.09375 1.59375 5.09375 C 1.5625 5.09375 1.523438 5.085938 1.484375 5.078125 C 1.441406 5.078125 1.398438 5.078125 1.359375 5.078125 C 1.328125 5.078125 1.289062 5.070312 1.25 5.0625 C 1.207031 5.0625 1.164062 5.054688 1.125 5.046875 C 1.082031 5.046875 1.046875 5.039062 1.015625 5.03125 C 0.984375 5.019531 0.945312 5.007812 0.90625 5 C 0.863281 5 0.828125 4.992188 0.796875 4.984375 C 0.765625 4.984375 0.726562 4.976562 0.6875 4.96875 C 0.34375 4.875 0.0664062 4.757812 -0.140625 4.625 L -0.453125 4.4375 L -0.359375 4.09375 L 0.03125 2.59375 L 0.1875 1.96875 L 0.765625 2.28125 C 0.890625 2.363281 1.039062 2.429688 1.21875 2.484375 C 1.425781 2.535156 1.65625 2.5625 1.90625 2.5625 C 2.019531 2.5625 2.125 2.550781 2.21875 2.53125 C 2.320312 2.519531 2.425781 2.492188 2.53125 2.453125 C 2.613281 2.429688 2.703125 2.394531 2.796875 2.34375 C 2.890625 2.289062 2.972656 2.222656 3.046875 2.140625 C 3.242188 1.984375 3.429688 1.753906 3.609375 1.453125 C 3.796875 1.128906 3.988281 0.722656 4.1875 0.234375 L 4.375 -0.28125 L 3.828125 -0.28125 L 3.6875 -0.578125 L -0.34375 -9.640625 L -0.546875 -10.09375 L -0.078125 -10.296875 L 1.5 -11.015625 L 1.953125 -11.21875 L 2.15625 -10.75 L 5.5 -3.296875 L 8.078125 -10.640625 L 8.25 -11.125 L 8.734375 -10.9375 L 10.375 -10.296875 L 10.828125 -10.125 L 10.65625 -9.65625 L 6.859375 0.6875 C 6.804688 0.851562 6.75 1.007812 6.6875 1.15625 C 6.632812 1.3125 6.570312 1.460938 6.5 1.609375 C 6.4375 1.753906 6.367188 1.890625 6.296875 2.015625 C 6.234375 2.148438 6.171875 2.273438 6.109375 2.390625 C 6.046875 2.515625 5.976562 2.640625 5.90625 2.765625 C 5.738281 3.035156 5.554688 3.285156 5.359375 3.515625 C 5.171875 3.753906 4.972656 3.957031 4.765625 4.125 C 4.546875 4.3125 4.320312 4.46875 4.09375 4.59375 C 3.863281 4.71875 3.628906 4.8125 3.390625 4.875 C 2.910156 5.019531 2.398438 5.09375 1.859375 5.09375 Z M 1.859375 5.09375 " style="fill: rgb(255, 255, 255);"></path>
      </g>
    </g>
  </g>
  <g fill="#0f2d45" fill-opacity="1">
    <g transform="translate(60.690943, 20.322582)">
      <g>
        <path d="M 1.59375 -15.1875 L 3.875 -15.1875 L 3.875 -10.3125 C 4.019531 -10.40625 4.164062 -10.492188 4.3125 -10.578125 C 4.582031 -10.710938 4.890625 -10.828125 5.234375 -10.921875 C 5.578125 -11.003906 5.945312 -11.046875 6.34375 -11.046875 C 7.007812 -11.046875 7.648438 -10.914062 8.265625 -10.65625 C 8.878906 -10.394531 9.414062 -10.007812 9.875 -9.5 C 10.34375 -9 10.707031 -8.390625 10.96875 -7.671875 C 11.0625 -7.441406 11.140625 -7.191406 11.203125 -6.921875 C 11.265625 -6.660156 11.3125 -6.390625 11.34375 -6.109375 C 11.375 -5.828125 11.390625 -5.546875 11.390625 -5.265625 C 11.390625 -4.367188 11.242188 -3.554688 10.953125 -2.828125 C 10.671875 -2.109375 10.296875 -1.484375 9.828125 -0.953125 C 9.578125 -0.691406 9.3125 -0.453125 9.03125 -0.234375 C 8.757812 -0.0234375 8.46875 0.148438 8.15625 0.296875 C 8 0.359375 7.835938 0.421875 7.671875 0.484375 C 7.515625 0.546875 7.359375 0.59375 7.203125 0.625 C 7.046875 0.65625 6.882812 0.679688 6.71875 0.703125 C 6.550781 0.722656 6.390625 0.734375 6.234375 0.734375 C 5.566406 0.734375 4.941406 0.613281 4.359375 0.375 C 4.148438 0.300781 3.945312 0.207031 3.75 0.09375 L 3.75 0.5 L 1.09375 0.5 L 1.09375 -15.1875 Z M 8.578125 -5.203125 C 8.578125 -5.472656 8.554688 -5.726562 8.515625 -5.96875 C 8.472656 -6.207031 8.421875 -6.425781 8.359375 -6.625 C 8.304688 -6.769531 8.25 -6.898438 8.1875 -7.015625 C 8.125 -7.140625 8.054688 -7.257812 7.984375 -7.375 C 7.921875 -7.488281 7.851562 -7.585938 7.78125 -7.671875 C 7.539062 -7.953125 7.265625 -8.160156 6.953125 -8.296875 C 6.640625 -8.441406 6.304688 -8.515625 5.953125 -8.515625 C 5.710938 -8.515625 5.488281 -8.484375 5.28125 -8.421875 C 5.070312 -8.359375 4.875 -8.269531 4.6875 -8.15625 C 4.34375 -7.945312 4.070312 -7.722656 3.875 -7.484375 L 3.875 -2.40625 C 4.09375 -2.257812 4.335938 -2.140625 4.609375 -2.046875 C 4.785156 -1.972656 4.96875 -1.921875 5.15625 -1.890625 C 5.351562 -1.859375 5.550781 -1.84375 5.75 -1.84375 C 6.164062 -1.84375 6.546875 -1.921875 6.890625 -2.078125 C 7.234375 -2.242188 7.523438 -2.460938 7.765625 -2.734375 C 8.015625 -3.023438 8.210938 -3.378906 8.359375 -3.796875 C 8.503906 -4.203125 8.578125 -4.671875 8.578125 -5.203125 Z M 8.578125 -5.203125 " style="fill: rgb(255, 255, 255);"></path>
      </g>
    </g>
  </g>
  <g fill="#0f2d45" fill-opacity="1">
    <g transform="translate(73.663158, 20.322582)">
      <g>
        <path d="M 3.3125 -3.921875 C 3.457031 -3.347656 3.707031 -2.878906 4.0625 -2.515625 C 4.53125 -2.066406 5.15625 -1.84375 5.9375 -1.84375 C 6.125 -1.84375 6.300781 -1.847656 6.46875 -1.859375 C 6.644531 -1.878906 6.8125 -1.898438 6.96875 -1.921875 C 7.125 -1.953125 7.273438 -1.988281 7.421875 -2.03125 C 7.566406 -2.0625 7.710938 -2.097656 7.859375 -2.140625 C 8.003906 -2.191406 8.144531 -2.242188 8.28125 -2.296875 C 8.425781 -2.347656 8.570312 -2.410156 8.71875 -2.484375 L 9.234375 -2.71875 L 9.390625 -2.15625 L 9.796875 -0.640625 L 9.921875 -0.21875 L 9.546875 -0.046875 C 9.023438 0.191406 8.445312 0.378906 7.8125 0.515625 C 7.5 0.597656 7.164062 0.65625 6.8125 0.6875 C 6.46875 0.71875 6.101562 0.734375 5.71875 0.734375 C 4.90625 0.734375 4.171875 0.601562 3.515625 0.34375 C 2.847656 0.0625 2.285156 -0.335938 1.828125 -0.859375 C 1.359375 -1.359375 1 -1.976562 0.75 -2.71875 C 0.507812 -3.4375 0.390625 -4.25 0.390625 -5.15625 C 0.390625 -5.976562 0.507812 -6.75 0.75 -7.46875 C 0.882812 -7.820312 1.035156 -8.15625 1.203125 -8.46875 C 1.378906 -8.789062 1.582031 -9.082031 1.8125 -9.34375 C 2.257812 -9.875 2.800781 -10.289062 3.4375 -10.59375 C 4.070312 -10.894531 4.78125 -11.046875 5.5625 -11.046875 C 5.820312 -11.046875 6.070312 -11.03125 6.3125 -11 C 6.5625 -10.96875 6.800781 -10.921875 7.03125 -10.859375 C 7.257812 -10.804688 7.484375 -10.734375 7.703125 -10.640625 C 8.015625 -10.492188 8.300781 -10.320312 8.5625 -10.125 C 8.820312 -9.9375 9.054688 -9.71875 9.265625 -9.46875 C 9.671875 -8.976562 9.984375 -8.414062 10.203125 -7.78125 C 10.296875 -7.457031 10.367188 -7.128906 10.421875 -6.796875 C 10.472656 -6.460938 10.5 -6.125 10.5 -5.78125 C 10.5 -5.6875 10.5 -5.59375 10.5 -5.5 C 10.5 -5.40625 10.492188 -5.304688 10.484375 -5.203125 C 10.484375 -5.109375 10.484375 -5.015625 10.484375 -4.921875 C 10.484375 -4.828125 10.476562 -4.738281 10.46875 -4.65625 C 10.457031 -4.570312 10.445312 -4.484375 10.4375 -4.390625 L 10.390625 -3.921875 Z M 5.515625 -8.515625 C 4.878906 -8.515625 4.363281 -8.300781 3.96875 -7.875 C 3.8125 -7.707031 3.671875 -7.492188 3.546875 -7.234375 C 3.429688 -6.984375 3.34375 -6.695312 3.28125 -6.375 L 7.84375 -6.375 C 7.769531 -7.007812 7.570312 -7.503906 7.25 -7.859375 C 6.832031 -8.296875 6.253906 -8.515625 5.515625 -8.515625 Z M 5.515625 -8.515625 " style="fill: rgb(255, 255, 255);"></path>
      </g>
    </g>
  </g>
  <g fill="#0f2d45" fill-opacity="1">
    <g transform="translate(85.643637, 20.322582)">
      <g>
        <path d="M 6.984375 -8.140625 C 6.796875 -8.210938 6.566406 -8.25 6.296875 -8.25 C 6.148438 -8.25 6.003906 -8.234375 5.859375 -8.203125 C 5.710938 -8.171875 5.566406 -8.125 5.421875 -8.0625 C 5.128906 -7.9375 4.875 -7.742188 4.65625 -7.484375 C 4.539062 -7.347656 4.4375 -7.191406 4.34375 -7.015625 C 4.25 -6.835938 4.164062 -6.640625 4.09375 -6.421875 C 3.945312 -5.972656 3.875 -5.441406 3.875 -4.828125 L 3.875 0.5 L 1.09375 0.5 L 1.09375 -10.8125 L 3.8125 -10.8125 L 3.8125 -9.84375 C 3.925781 -9.957031 4.050781 -10.070312 4.1875 -10.1875 C 4.488281 -10.445312 4.847656 -10.65625 5.265625 -10.8125 C 5.472656 -10.894531 5.6875 -10.953125 5.90625 -10.984375 C 6.132812 -11.023438 6.375 -11.046875 6.625 -11.046875 C 6.84375 -11.046875 7.054688 -11.035156 7.265625 -11.015625 C 7.484375 -11.003906 7.679688 -10.972656 7.859375 -10.921875 L 8.328125 -10.78125 L 8.203125 -10.296875 L 7.65625 -8.453125 L 7.5 -7.921875 Z M 6.984375 -8.140625 " style="fill: rgb(255, 255, 255);"></path>
      </g>
    </g>
  </g>
  <g fill="#0f2d45" fill-opacity="1">
    <g transform="translate(94.74807, 20.322582)">
      <g>
        <path d="M 3.40625 -6.96875 C 3.40625 -6.695312 3.414062 -6.4375 3.4375 -6.1875 C 3.457031 -5.945312 3.488281 -5.710938 3.53125 -5.484375 C 3.582031 -5.265625 3.640625 -5.050781 3.703125 -4.84375 C 3.910156 -4.21875 4.191406 -3.6875 4.546875 -3.25 C 4.660156 -3.101562 4.78125 -2.96875 4.90625 -2.84375 C 5.03125 -2.71875 5.164062 -2.601562 5.3125 -2.5 C 5.457031 -2.40625 5.613281 -2.320312 5.78125 -2.25 C 6.25 -2.019531 6.769531 -1.90625 7.34375 -1.90625 C 7.9375 -1.90625 8.445312 -1.972656 8.875 -2.109375 C 9.320312 -2.253906 9.75 -2.453125 10.15625 -2.703125 L 10.671875 -3 L 10.875 -2.4375 L 11.453125 -0.875 L 11.609375 -0.453125 L 11.234375 -0.265625 C 10.703125 0.015625 10.109375 0.253906 9.453125 0.453125 C 8.773438 0.640625 8 0.734375 7.125 0.734375 C 6.144531 0.734375 5.25 0.550781 4.4375 0.1875 C 3.625 -0.164062 2.921875 -0.675781 2.328125 -1.34375 C 1.742188 -2.007812 1.289062 -2.8125 0.96875 -3.75 C 0.65625 -4.6875 0.5 -5.734375 0.5 -6.890625 C 0.5 -7.992188 0.65625 -9.019531 0.96875 -9.96875 C 1.289062 -10.914062 1.75 -11.734375 2.34375 -12.421875 C 2.945312 -13.117188 3.675781 -13.660156 4.53125 -14.046875 C 4.945312 -14.234375 5.394531 -14.375 5.875 -14.46875 C 6.351562 -14.570312 6.847656 -14.625 7.359375 -14.625 C 8.078125 -14.625 8.71875 -14.554688 9.28125 -14.421875 C 9.851562 -14.296875 10.398438 -14.113281 10.921875 -13.875 L 11.3125 -13.671875 L 11.171875 -13.234375 L 10.59375 -11.640625 L 10.390625 -11.125 L 9.90625 -11.375 C 9.519531 -11.570312 9.128906 -11.722656 8.734375 -11.828125 C 8.597656 -11.867188 8.457031 -11.898438 8.3125 -11.921875 C 8.175781 -11.941406 8.023438 -11.957031 7.859375 -11.96875 C 7.703125 -11.976562 7.53125 -11.984375 7.34375 -11.984375 C 7.0625 -11.984375 6.785156 -11.957031 6.515625 -11.90625 C 6.253906 -11.851562 6.003906 -11.773438 5.765625 -11.671875 C 5.535156 -11.566406 5.316406 -11.429688 5.109375 -11.265625 C 4.898438 -11.109375 4.707031 -10.921875 4.53125 -10.703125 C 4.363281 -10.492188 4.210938 -10.257812 4.078125 -10 C 3.941406 -9.75 3.816406 -9.460938 3.703125 -9.140625 C 3.503906 -8.515625 3.40625 -7.789062 3.40625 -6.96875 Z M 3.40625 -6.96875 " style="fill: rgb(255, 255, 255);"></path>
      </g>
    </g>
  </g>
  <g fill="#0f2d45" fill-opacity="1">
    <g transform="translate(107.720287, 20.322582)">
      <g>
        <path d="M 8.75 -5.15625 C 8.75 -5.625 8.675781 -6.0625 8.53125 -6.46875 C 8.382812 -6.863281 8.1875 -7.210938 7.9375 -7.515625 C 7.84375 -7.609375 7.75 -7.695312 7.65625 -7.78125 C 7.5625 -7.875 7.460938 -7.957031 7.359375 -8.03125 C 7.253906 -8.101562 7.144531 -8.164062 7.03125 -8.21875 C 6.863281 -8.3125 6.6875 -8.375 6.5 -8.40625 C 6.320312 -8.445312 6.132812 -8.46875 5.9375 -8.46875 C 5.050781 -8.46875 4.363281 -8.1875 3.875 -7.625 C 3.363281 -7.03125 3.109375 -6.222656 3.109375 -5.203125 C 3.109375 -4.734375 3.179688 -4.296875 3.328125 -3.890625 C 3.359375 -3.828125 3.382812 -3.757812 3.40625 -3.6875 C 3.4375 -3.625 3.46875 -3.554688 3.5 -3.484375 C 3.53125 -3.421875 3.5625 -3.359375 3.59375 -3.296875 C 3.632812 -3.242188 3.671875 -3.191406 3.703125 -3.140625 C 3.734375 -3.085938 3.769531 -3.03125 3.8125 -2.96875 C 3.851562 -2.90625 3.898438 -2.851562 3.953125 -2.8125 C 4.023438 -2.707031 4.109375 -2.613281 4.203125 -2.53125 C 4.296875 -2.445312 4.394531 -2.367188 4.5 -2.296875 C 4.601562 -2.222656 4.71875 -2.160156 4.84375 -2.109375 C 5 -2.015625 5.171875 -1.945312 5.359375 -1.90625 C 5.546875 -1.863281 5.738281 -1.84375 5.9375 -1.84375 C 6.382812 -1.84375 6.78125 -1.921875 7.125 -2.078125 C 7.289062 -2.160156 7.441406 -2.253906 7.578125 -2.359375 C 7.722656 -2.460938 7.859375 -2.585938 7.984375 -2.734375 C 8.234375 -3.015625 8.421875 -3.359375 8.546875 -3.765625 C 8.679688 -4.179688 8.75 -4.644531 8.75 -5.15625 Z M 0.296875 -5.15625 C 0.296875 -6.0625 0.441406 -6.875 0.734375 -7.59375 C 1.023438 -8.320312 1.421875 -8.941406 1.921875 -9.453125 C 2.421875 -9.960938 3.015625 -10.359375 3.703125 -10.640625 C 4.398438 -10.910156 5.144531 -11.046875 5.9375 -11.046875 C 6.132812 -11.046875 6.320312 -11.035156 6.5 -11.015625 C 6.6875 -11.003906 6.875 -10.976562 7.0625 -10.9375 C 7.25 -10.90625 7.429688 -10.863281 7.609375 -10.8125 C 7.785156 -10.757812 7.960938 -10.703125 8.140625 -10.640625 C 8.484375 -10.503906 8.800781 -10.335938 9.09375 -10.140625 C 9.394531 -9.941406 9.675781 -9.71875 9.9375 -9.46875 C 10.445312 -8.945312 10.84375 -8.320312 11.125 -7.59375 C 11.414062 -6.882812 11.5625 -6.085938 11.5625 -5.203125 C 11.5625 -4.316406 11.425781 -3.507812 11.15625 -2.78125 C 10.863281 -2.050781 10.46875 -1.425781 9.96875 -0.90625 C 9.707031 -0.644531 9.425781 -0.410156 9.125 -0.203125 C 8.820312 -0.00390625 8.5 0.164062 8.15625 0.3125 C 7.46875 0.59375 6.726562 0.734375 5.9375 0.734375 C 5.539062 0.734375 5.148438 0.695312 4.765625 0.625 C 4.390625 0.550781 4.03125 0.441406 3.6875 0.296875 C 3 0.00390625 2.40625 -0.398438 1.90625 -0.921875 C 1.40625 -1.441406 1.007812 -2.066406 0.71875 -2.796875 C 0.4375 -3.515625 0.296875 -4.300781 0.296875 -5.15625 Z M 0.296875 -5.15625 " style="fill: rgb(255, 255, 255);"></path>
      </g>
    </g>
  </g>
  <g fill="#0f2d45" fill-opacity="1">
    <g transform="translate(120.771845, 20.322582)">
      <g>
        <path d="M 3.8125 -9.90625 C 3.914062 -10.007812 4.019531 -10.097656 4.125 -10.171875 C 4.226562 -10.253906 4.34375 -10.328125 4.46875 -10.390625 C 5.125 -10.828125 5.894531 -11.046875 6.78125 -11.046875 C 7.4375 -11.046875 8.015625 -10.941406 8.515625 -10.734375 C 9.015625 -10.535156 9.4375 -10.234375 9.78125 -9.828125 C 10.425781 -9.023438 10.75 -7.992188 10.75 -6.734375 L 10.75 0.5 L 7.984375 0.5 L 7.984375 -6.53125 C 7.984375 -6.75 7.960938 -6.953125 7.921875 -7.140625 C 7.890625 -7.328125 7.84375 -7.492188 7.78125 -7.640625 C 7.726562 -7.785156 7.65625 -7.910156 7.5625 -8.015625 C 7.476562 -8.117188 7.382812 -8.207031 7.28125 -8.28125 C 7.1875 -8.351562 7.070312 -8.40625 6.9375 -8.4375 C 6.8125 -8.476562 6.660156 -8.5 6.484375 -8.5 C 6.242188 -8.5 6.007812 -8.453125 5.78125 -8.359375 C 5.519531 -8.265625 5.273438 -8.128906 5.046875 -7.953125 C 4.804688 -7.765625 4.578125 -7.5625 4.359375 -7.34375 C 4.285156 -7.238281 4.203125 -7.128906 4.109375 -7.015625 C 4.015625 -6.898438 3.9375 -6.789062 3.875 -6.6875 L 3.875 0.5 L 1.09375 0.5 L 1.09375 -10.8125 L 3.8125 -10.8125 Z M 3.8125 -9.90625 " style="fill: rgb(255, 255, 255);"></path>
      </g>
    </g>
  </g>
  <g fill="#0f2d45" fill-opacity="1">
    <g transform="translate(133.704398, 20.322582)">
      <g>
        <path d="M 1.78125 -2.703125 C 2.070312 -2.429688 2.453125 -2.21875 2.921875 -2.0625 C 3.378906 -1.894531 3.878906 -1.8125 4.421875 -1.8125 C 5.066406 -1.8125 5.535156 -1.898438 5.828125 -2.078125 C 6.054688 -2.242188 6.171875 -2.425781 6.171875 -2.625 C 6.171875 -2.75 6.144531 -2.867188 6.09375 -2.984375 C 6.050781 -3.085938 5.972656 -3.191406 5.859375 -3.296875 C 5.691406 -3.429688 5.460938 -3.5625 5.171875 -3.6875 C 5.097656 -3.71875 5.015625 -3.75 4.921875 -3.78125 C 4.828125 -3.820312 4.726562 -3.863281 4.625 -3.90625 C 4.519531 -3.945312 4.410156 -3.988281 4.296875 -4.03125 C 4.179688 -4.082031 4.054688 -4.128906 3.921875 -4.171875 C 3.578125 -4.285156 3.265625 -4.410156 2.984375 -4.546875 C 2.703125 -4.679688 2.441406 -4.820312 2.203125 -4.96875 C 1.960938 -5.125 1.75 -5.285156 1.5625 -5.453125 C 1.269531 -5.734375 1.050781 -6.066406 0.90625 -6.453125 C 0.757812 -6.835938 0.6875 -7.257812 0.6875 -7.71875 C 0.6875 -8.195312 0.796875 -8.644531 1.015625 -9.0625 C 1.085938 -9.195312 1.171875 -9.328125 1.265625 -9.453125 C 1.359375 -9.578125 1.457031 -9.695312 1.5625 -9.8125 C 1.664062 -9.925781 1.785156 -10.03125 1.921875 -10.125 C 2.304688 -10.425781 2.769531 -10.65625 3.3125 -10.8125 C 3.84375 -10.96875 4.445312 -11.046875 5.125 -11.046875 C 5.832031 -11.046875 6.46875 -10.972656 7.03125 -10.828125 C 7.300781 -10.753906 7.554688 -10.671875 7.796875 -10.578125 C 8.046875 -10.484375 8.28125 -10.378906 8.5 -10.265625 L 8.890625 -10.0625 L 8.75 -9.65625 L 8.25 -8.203125 L 8.0625 -7.625 L 7.515625 -7.921875 C 7.203125 -8.117188 6.835938 -8.273438 6.421875 -8.390625 C 6.003906 -8.515625 5.546875 -8.578125 5.046875 -8.578125 C 4.847656 -8.578125 4.664062 -8.5625 4.5 -8.53125 C 4.332031 -8.507812 4.1875 -8.472656 4.0625 -8.421875 C 3.945312 -8.378906 3.847656 -8.320312 3.765625 -8.25 C 3.640625 -8.15625 3.550781 -8.066406 3.5 -7.984375 C 3.457031 -7.898438 3.4375 -7.816406 3.4375 -7.734375 C 3.4375 -7.640625 3.445312 -7.5625 3.46875 -7.5 C 3.5 -7.445312 3.5625 -7.390625 3.65625 -7.328125 C 3.78125 -7.234375 3.957031 -7.132812 4.1875 -7.03125 C 4.320312 -6.976562 4.460938 -6.921875 4.609375 -6.859375 C 4.765625 -6.796875 4.941406 -6.734375 5.140625 -6.671875 C 5.304688 -6.597656 5.46875 -6.53125 5.625 -6.46875 C 5.78125 -6.414062 5.929688 -6.359375 6.078125 -6.296875 C 6.222656 -6.242188 6.359375 -6.1875 6.484375 -6.125 C 6.609375 -6.0625 6.726562 -6.003906 6.84375 -5.953125 C 7.34375 -5.691406 7.753906 -5.40625 8.078125 -5.09375 C 8.410156 -4.769531 8.640625 -4.410156 8.765625 -4.015625 C 8.910156 -3.628906 8.984375 -3.210938 8.984375 -2.765625 C 8.984375 -2.210938 8.863281 -1.710938 8.625 -1.265625 C 8.394531 -0.828125 8.070312 -0.457031 7.65625 -0.15625 C 7.445312 -0.0078125 7.21875 0.113281 6.96875 0.21875 C 6.726562 0.332031 6.46875 0.429688 6.1875 0.515625 C 5.632812 0.660156 5.023438 0.734375 4.359375 0.734375 C 3.515625 0.734375 2.753906 0.628906 2.078125 0.421875 C 1.410156 0.191406 0.847656 -0.09375 0.390625 -0.4375 L 0.0625 -0.6875 L 0.265625 -1.046875 L 1.296875 -3.109375 Z M 1.78125 -2.703125 " style="fill: rgb(255, 255, 255);"></path>
      </g>
    </g>
  </g>
  <g fill="#0f2d45" fill-opacity="1">
    <g transform="translate(144.177425, 20.322582)">
      <g>
        <path d="M 8.75 -5.15625 C 8.75 -5.625 8.675781 -6.0625 8.53125 -6.46875 C 8.382812 -6.863281 8.1875 -7.210938 7.9375 -7.515625 C 7.84375 -7.609375 7.75 -7.695312 7.65625 -7.78125 C 7.5625 -7.875 7.460938 -7.957031 7.359375 -8.03125 C 7.253906 -8.101562 7.144531 -8.164062 7.03125 -8.21875 C 6.863281 -8.3125 6.6875 -8.375 6.5 -8.40625 C 6.320312 -8.445312 6.132812 -8.46875 5.9375 -8.46875 C 5.050781 -8.46875 4.363281 -8.1875 3.875 -7.625 C 3.363281 -7.03125 3.109375 -6.222656 3.109375 -5.203125 C 3.109375 -4.734375 3.179688 -4.296875 3.328125 -3.890625 C 3.359375 -3.828125 3.382812 -3.757812 3.40625 -3.6875 C 3.4375 -3.625 3.46875 -3.554688 3.5 -3.484375 C 3.53125 -3.421875 3.5625 -3.359375 3.59375 -3.296875 C 3.632812 -3.242188 3.671875 -3.191406 3.703125 -3.140625 C 3.734375 -3.085938 3.769531 -3.03125 3.8125 -2.96875 C 3.851562 -2.90625 3.898438 -2.851562 3.953125 -2.8125 C 4.023438 -2.707031 4.109375 -2.613281 4.203125 -2.53125 C 4.296875 -2.445312 4.394531 -2.367188 4.5 -2.296875 C 4.601562 -2.222656 4.71875 -2.160156 4.84375 -2.109375 C 5 -2.015625 5.171875 -1.945312 5.359375 -1.90625 C 5.546875 -1.863281 5.738281 -1.84375 5.9375 -1.84375 C 6.382812 -1.84375 6.78125 -1.921875 7.125 -2.078125 C 7.289062 -2.160156 7.441406 -2.253906 7.578125 -2.359375 C 7.722656 -2.460938 7.859375 -2.585938 7.984375 -2.734375 C 8.234375 -3.015625 8.421875 -3.359375 8.546875 -3.765625 C 8.679688 -4.179688 8.75 -4.644531 8.75 -5.15625 Z M 0.296875 -5.15625 C 0.296875 -6.0625 0.441406 -6.875 0.734375 -7.59375 C 1.023438 -8.320312 1.421875 -8.941406 1.921875 -9.453125 C 2.421875 -9.960938 3.015625 -10.359375 3.703125 -10.640625 C 4.398438 -10.910156 5.144531 -11.046875 5.9375 -11.046875 C 6.132812 -11.046875 6.320312 -11.035156 6.5 -11.015625 C 6.6875 -11.003906 6.875 -10.976562 7.0625 -10.9375 C 7.25 -10.90625 7.429688 -10.863281 7.609375 -10.8125 C 7.785156 -10.757812 7.960938 -10.703125 8.140625 -10.640625 C 8.484375 -10.503906 8.800781 -10.335938 9.09375 -10.140625 C 9.394531 -9.941406 9.675781 -9.71875 9.9375 -9.46875 C 10.445312 -8.945312 10.84375 -8.320312 11.125 -7.59375 C 11.414062 -6.882812 11.5625 -6.085938 11.5625 -5.203125 C 11.5625 -4.316406 11.425781 -3.507812 11.15625 -2.78125 C 10.863281 -2.050781 10.46875 -1.425781 9.96875 -0.90625 C 9.707031 -0.644531 9.425781 -0.410156 9.125 -0.203125 C 8.820312 -0.00390625 8.5 0.164062 8.15625 0.3125 C 7.46875 0.59375 6.726562 0.734375 5.9375 0.734375 C 5.539062 0.734375 5.148438 0.695312 4.765625 0.625 C 4.390625 0.550781 4.03125 0.441406 3.6875 0.296875 C 3 0.00390625 2.40625 -0.398438 1.90625 -0.921875 C 1.40625 -1.441406 1.007812 -2.066406 0.71875 -2.796875 C 0.4375 -3.515625 0.296875 -4.300781 0.296875 -5.15625 Z M 0.296875 -5.15625 " style="fill: rgb(255, 255, 255);"></path>
      </g>
    </g>
  </g>
  <g fill="#0f2d45" fill-opacity="1">
    <g transform="translate(157.228983, 20.322582)">
      <g>
        <path d="M 3.765625 -3.40625 C 3.765625 -2.8125 3.875 -2.390625 4.09375 -2.140625 C 4.289062 -1.921875 4.582031 -1.8125 4.96875 -1.8125 C 5.175781 -1.8125 5.378906 -1.835938 5.578125 -1.890625 C 5.785156 -1.941406 5.96875 -2 6.125 -2.0625 L 6.640625 -2.28125 L 6.8125 -1.75 L 7.25 -0.296875 L 7.359375 0.125 L 6.96875 0.296875 C 6.695312 0.410156 6.375 0.507812 6 0.59375 C 5.613281 0.6875 5.1875 0.734375 4.71875 0.734375 C 4.207031 0.734375 3.726562 0.660156 3.28125 0.515625 C 2.820312 0.359375 2.421875 0.113281 2.078125 -0.21875 C 1.734375 -0.550781 1.460938 -0.96875 1.265625 -1.46875 C 1.085938 -1.957031 1 -2.546875 1 -3.234375 L 1 -15.1875 L 3.765625 -15.1875 Z M 3.765625 -3.40625 " style="fill: rgb(255, 255, 255);"></path>
      </g>
    </g>
  </g>
  <g fill="#0f2d45" fill-opacity="1">
    <g transform="translate(165.282161, 20.322582)">
      <g>
        <path d="M 3.3125 -3.921875 C 3.457031 -3.347656 3.707031 -2.878906 4.0625 -2.515625 C 4.53125 -2.066406 5.15625 -1.84375 5.9375 -1.84375 C 6.125 -1.84375 6.300781 -1.847656 6.46875 -1.859375 C 6.644531 -1.878906 6.8125 -1.898438 6.96875 -1.921875 C 7.125 -1.953125 7.273438 -1.988281 7.421875 -2.03125 C 7.566406 -2.0625 7.710938 -2.097656 7.859375 -2.140625 C 8.003906 -2.191406 8.144531 -2.242188 8.28125 -2.296875 C 8.425781 -2.347656 8.570312 -2.410156 8.71875 -2.484375 L 9.234375 -2.71875 L 9.390625 -2.15625 L 9.796875 -0.640625 L 9.921875 -0.21875 L 9.546875 -0.046875 C 9.023438 0.191406 8.445312 0.378906 7.8125 0.515625 C 7.5 0.597656 7.164062 0.65625 6.8125 0.6875 C 6.46875 0.71875 6.101562 0.734375 5.71875 0.734375 C 4.90625 0.734375 4.171875 0.601562 3.515625 0.34375 C 2.847656 0.0625 2.285156 -0.335938 1.828125 -0.859375 C 1.359375 -1.359375 1 -1.976562 0.75 -2.71875 C 0.507812 -3.4375 0.390625 -4.25 0.390625 -5.15625 C 0.390625 -5.976562 0.507812 -6.75 0.75 -7.46875 C 0.882812 -7.820312 1.035156 -8.15625 1.203125 -8.46875 C 1.378906 -8.789062 1.582031 -9.082031 1.8125 -9.34375 C 2.257812 -9.875 2.800781 -10.289062 3.4375 -10.59375 C 4.070312 -10.894531 4.78125 -11.046875 5.5625 -11.046875 C 5.820312 -11.046875 6.070312 -11.03125 6.3125 -11 C 6.5625 -10.96875 6.800781 -10.921875 7.03125 -10.859375 C 7.257812 -10.804688 7.484375 -10.734375 7.703125 -10.640625 C 8.015625 -10.492188 8.300781 -10.320312 8.5625 -10.125 C 8.820312 -9.9375 9.054688 -9.71875 9.265625 -9.46875 C 9.671875 -8.976562 9.984375 -8.414062 10.203125 -7.78125 C 10.296875 -7.457031 10.367188 -7.128906 10.421875 -6.796875 C 10.472656 -6.460938 10.5 -6.125 10.5 -5.78125 C 10.5 -5.6875 10.5 -5.59375 10.5 -5.5 C 10.5 -5.40625 10.492188 -5.304688 10.484375 -5.203125 C 10.484375 -5.109375 10.484375 -5.015625 10.484375 -4.921875 C 10.484375 -4.828125 10.476562 -4.738281 10.46875 -4.65625 C 10.457031 -4.570312 10.445312 -4.484375 10.4375 -4.390625 L 10.390625 -3.921875 Z M 5.515625 -8.515625 C 4.878906 -8.515625 4.363281 -8.300781 3.96875 -7.875 C 3.8125 -7.707031 3.671875 -7.492188 3.546875 -7.234375 C 3.429688 -6.984375 3.34375 -6.695312 3.28125 -6.375 L 7.84375 -6.375 C 7.769531 -7.007812 7.570312 -7.503906 7.25 -7.859375 C 6.832031 -8.296875 6.253906 -8.515625 5.515625 -8.515625 Z M 5.515625 -8.515625 " style="fill: rgb(255, 255, 255);"></path>
      </g>
    </g>
  </g>
  <g fill="#0f2d45" fill-opacity="1">
    <g transform="translate(172.685228, 6.895167)">
      <g>
        <path d="M 1.671875 -1.84375 L 1 -1.84375 L 1 0 L 0.71875 0 L 0.71875 -1.84375 L 0.046875 -1.84375 L 0.046875 -2.078125 L 1.671875 -2.078125 Z M 1.671875 -1.84375 " style="fill: rgb(255, 255, 255);"></path>
      </g>
    </g>
  </g>
  <g fill="#0f2d45" fill-opacity="1">
    <g transform="translate(174.399596, 6.895167)">
      <g>
        <path d="M 2.4375 -2.078125 L 2.4375 0 L 2.1875 0 L 2.1875 -1.53125 C 2.1875 -1.550781 2.1875 -1.570312 2.1875 -1.59375 C 2.1875 -1.613281 2.1875 -1.640625 2.1875 -1.671875 L 1.484375 -0.359375 C 1.453125 -0.316406 1.414062 -0.296875 1.375 -0.296875 L 1.328125 -0.296875 C 1.285156 -0.296875 1.253906 -0.316406 1.234375 -0.359375 L 0.5 -1.671875 C 0.507812 -1.617188 0.515625 -1.570312 0.515625 -1.53125 L 0.515625 0 L 0.265625 0 L 0.265625 -2.078125 L 0.46875 -2.078125 C 0.5 -2.078125 0.519531 -2.070312 0.53125 -2.0625 C 0.539062 -2.0625 0.554688 -2.050781 0.578125 -2.03125 L 1.296875 -0.75 C 1.304688 -0.726562 1.316406 -0.703125 1.328125 -0.671875 C 1.335938 -0.648438 1.347656 -0.628906 1.359375 -0.609375 C 1.367188 -0.628906 1.378906 -0.648438 1.390625 -0.671875 C 1.398438 -0.703125 1.410156 -0.726562 1.421875 -0.75 L 2.125 -2.03125 C 2.132812 -2.050781 2.144531 -2.0625 2.15625 -2.0625 C 2.175781 -2.070312 2.195312 -2.078125 2.21875 -2.078125 Z M 2.4375 -2.078125 " style="fill: rgb(255, 255, 255);"></path>
      </g>
    </g>
  </g>
</svg>